<svg width="38" height="22" viewBox="0 0 38 22" fill="none" xmlns="http://www.w3.org/2000/svg" xmlns:c2pa="http://c2pa.org/manifest"><metadata><c2pa:manifest>AAAWgmp1bWIAAAAeanVtZGMycGEAEQAQgAAAqgA4m3EDYzJwYQAAABZcanVtYgAAAEdqdW1kYzJtYQARABCAAACqADibcQN1cm46YzJwYTowMDExM2RmZi0xNGRkLTQwOTQtODM3OS0xZTY1ZTJiMzhlMzgAAAADl2p1bWIAAAApanVtZGMyYXMAEQAQgAAAqgA4m3EDYzJwYS5hc3NlcnRpb25zAAAAALxqdW1iAAAARGp1bWRjYm9yABEAEIAAAKoAOJtxE2MycGEuaW5ncmVkaWVudC52MwAAAAAYYzJzaJJsFn0Ls3rswOmQpHr74bkAAABwY2JvcqNpZGM6Zm9ybWF0bWltYWdlL3N2Zyt4bWxqaW5zdGFuY2VJRHgseG1wOmlpZDpmNTcwNWNkOC04OWVjLTQwYTAtYjEyNC02NzFkZGFmM2ZmODFscmVsYXRpb25zaGlwaHBhcmVudE9mAAAB4mp1bWIAAABBanVtZGNib3IAEQAQgAAAqgA4m3ETYzJwYS5hY3Rpb25zLnYyAAAAABhjMnNoffkULxEauY+cpoSKati1PQAAAZljYm9yomdhY3Rpb25zgqJmYWN0aW9ua2MycGEub3BlbmVkanBhcmFtZXRlcnOha2luZ3JlZGllbnRzgaJjdXJseC1zZWxmI2p1bWJmPWMycGEuYXNzZXJ0aW9ucy9jMnBhLmluZ3JlZGllbnQudjNkaGFzaFggxHC7MqfetJMB2g3OC7UCaAmyZfNN30v4h8fk6byADBekZmFjdGlvbngdY29tLmFudGhyb3BpYy5jbGF1ZGUucHJvdmlkZWRqcGFyYW1ldGVyc6F4H2NvbS5hbnRocm9waWMub3JpZ2luLWNvbmZpZGVuY2VndW5rbm93bmtkZXNjcmlwdGlvbnhmQ2xhdWRlIHByb3ZpZGVkIHRoaXMgZmlsZSBhdCB0aGUgcmVxdWVzdCBvZiBhIHVzZXIgYW5kIG1heSBoYXZlIGNyZWF0ZWQgb3IgbW9kaWZpZWQgdGhlIGZpbGUgY29udGVudHMubXNvZnR3YXJlQWdlbnShZG5hbWVmQ2xhdWRlcmFsbEFjdGlvbnNJbmNsdWRlZPUAAADIanVtYgAAAEBqdW1kY2JvcgARABCAAACqADibcRNjMnBhLmhhc2guZGF0YQAAAAAYYzJzaDcVTb+8a5EZqdjGH8mogqUAAACAY2JvcqVjYWxnZnNoYTI1NmNwYWRNAAAAAAAAAAAAAAAAAGRoYXNoWCAj8FKxpVHflQcupgz6D1fX1Mx8353fAE8gEwtk1XcAFmRuYW1lbmp1bWJmIG1hbmlmZXN0amV4Y2x1c2lvbnOBomVzdGFydBieZmxlbmd0aBkeBAAAAj5qdW1iAAAAJ2p1bWRjMmNsABEAEIAAAKoAOJtxA2MycGEuY2xhaW0udjIAAAACD2Nib3KlY2FsZ2ZzaGEyNTZpc2lnbmF0dXJleE1zZWxmI2p1bWJmPS9jMnBhL3VybjpjMnBhOjAwMTEzZGZmLTE0ZGQtNDA5NC04Mzc5LTFlNjVlMmIzOGUzOC9jMnBhLnNpZ25hdHVyZWppbnN0YW5jZUlEeCx4bXA6aWlkOjUyZjFmZTU1LWJiNzUtNDAyNS04NDQ4LTY4ZjE2YmRkNzJjZnJjcmVhdGVkX2Fzc2VydGlvbnODomN1cmx4LXNlbGYjanVtYmY9YzJwYS5hc3NlcnRpb25zL2MycGEuaW5ncmVkaWVudC52M2RoYXNoWCDEcLsyp960kwHaDc4LtQJoCbJl803fS/iHx+TpvIAMF6JjdXJseCpzZWxmI2p1bWJmPWMycGEuYXNzZXJ0aW9ucy9jMnBhLmFjdGlvbnMudjJkaGFzaFggnqvr71MoPrg+VQVM/8G9mOgKwDI6A/cI+E3DC05LB0qiY3VybHgpc2VsZiNqdW1iZj1jMnBhLmFzc2VydGlvbnMvYzJwYS5oYXNoLmRhdGFkaGFzaFggY2e5Rqgo2dBAOHNbkDpQBxxPS0eeg/Ace5nohXHNizF0Y2xhaW1fZ2VuZXJhdG9yX2luZm+jZG5hbWVvQW50aHJvcGljIEZpbGVzZ3ZlcnNpb25lMS4wLjBrc3BlY1ZlcnNpb25lMi40LjAAABA4anVtYgAAAChqdW1kYzJjcwARABCAAACqADibcQNjMnBhLnNpZ25hdHVyZQAAABAIY2JvctKEWQISogEmGCFZAgowggIGMIIBjaADAgECAhRA5aAK7sI50L64g/oGQgU9Z1UTADAKBggqhkjOPQQDAzBJMRcwFQYDVQQKEw5BbnRocm9waWMsIFBCQzEuMCwGA1UEAxMlQW50aHJvcGljIENvbnRlbnQgQ3JlZGVudGlhbHMgUm9vdCBDQTAeFw0yNjA4MDcxODQzNTZaFw0yODA4MDYxOTQzNTZaMEQxFzAVBgNVBAoTDkFudGhyb3BpYywgUEJDMSkwJwYDVQQDEyBBbnRocm9waWMgQ2xhdWRlIENvbnRlbnQgU2lnbmluZzBZMBMGByqGSM49AgEGCCqGSM49AwEHA0IABJh6CmvLUBgFFNU0vUKlOVtE6djd17L5SuwX0LemFisBM3dkd/3cyjxFA3Qo5S46fX0/ihY0VZ7mfb9KF703t5OjWDBWMA4GA1UdDwEB/wQEAwIHgDAVBgNVHSUEDjAMBgorBgEEAYPoXgIBMAwGA1UdEwEB/wQCMAAwHwYDVR0jBBgwFoAUzlHiBIFOZFsj+OPEz5o+nMHXXMIwCgYIKoZIzj0EAwMDZwAwZAIwMXMdFJ4BetLLVY7ORuE9noqbbAZOZn/aArXyTwFAZfKrPzxF2vPoJNf1+UCdg1XGAjBwX1zd9WGqYkqmL5SFqw1QySjr1zJfpJM9+1rdDwSPLMOPOjKuiXjoU/pUUeG9RwmhY3BhZFkNngAAAAAAAAAAAAAAAAAAAAAAAAAAAAAAAAAAAAAAAAAAAAAAAAAAAAAAAAAAAAAAAAAAAAAAAAAAAAAAAAAAAAAAAAAAAAAAAAAAAAAAAAAAAAAAAAAAAAAAAAAAAAAAAAAAAAAAAAAAAAAAAAAAAAAAAAAAAAAAAAAAAAAAAAAAAAAAAAAAAAAAAAAAAAAAAAAAAAAAAAAAAAAAAAAAAAAAAAAAAAAAAAAAAAAAAAAAAAAAAAAAAAAAAAAAAAAAAAAAAAAAAAAAAAAAAAAAAAAAAAAAAAAAAAAAAAAAAAAAAAAAAAAAAAAAAAAAAAAAAAAAAAAAAAAAAAAAAAAAAAAAAAAAAAAAAAAAAAAAAAAAAAAAAAAAAAAAAAAAAAAAAAAAAAAAAAAAAAAAAAAAAAAAAAAAAAAAAAAAAAAAAAAAAAAAAAAAAAAAAAAAAAAAAAAAAAAAAAAAAAAAAAAAAAAAAAAAAAAAAAAAAAAAAAAAAAAAAAAAAAAAAAAAAAAAAAAAAAAAAAAAAAAAAAAAAAAAAAAAAAAAAAAAAAAAAAAAAAAAAAAAAAAAAAAAAAAAAAAAAAAAAAAAAAAAAAAAAAAAAAAAAAAAAAAAAAAAAAAAAAAAAAAAAAAAAAAAAAAAAAAAAAAAAAAAAAAAAAAAAAAAAAAAAAAAAAAAAAAAAAAAAAAAAAAAAAAAAAAAAAAAAAAAAAAAAAAAAAAAAAAAAAAAAAAAAAAAAAAAAAAAAAAAAAAAAAAAAAAAAAAAAAAAAAAAAAAAAAAAAAAAAAAAAAAAAAAAAAAAAAAAAAAAAAAAAAAAAAAAAAAAAAAAAAAAAAAAAAAAAAAAAAAAAAAAAAAAAAAAAAAAAAAAAAAAAAAAAAAAAAAAAAAAAAAAAAAAAAAAAAAAAAAAAAAAAAAAAAAAAAAAAAAAAAAAAAAAAAAAAAAAAAAAAAAAAAAAAAAAAAAAAAAAAAAAAAAAAAAAAAAAAAAAAAAAAAAAAAAAAAAAAAAAAAAAAAAAAAAAAAAAAAAAAAAAAAAAAAAAAAAAAAAAAAAAAAAAAAAAAAAAAAAAAAAAAAAAAAAAAAAAAAAAAAAAAAAAAAAAAAAAAAAAAAAAAAAAAAAAAAAAAAAAAAAAAAAAAAAAAAAAAAAAAAAAAAAAAAAAAAAAAAAAAAAAAAAAAAAAAAAAAAAAAAAAAAAAAAAAAAAAAAAAAAAAAAAAAAAAAAAAAAAAAAAAAAAAAAAAAAAAAAAAAAAAAAAAAAAAAAAAAAAAAAAAAAAAAAAAAAAAAAAAAAAAAAAAAAAAAAAAAAAAAAAAAAAAAAAAAAAAAAAAAAAAAAAAAAAAAAAAAAAAAAAAAAAAAAAAAAAAAAAAAAAAAAAAAAAAAAAAAAAAAAAAAAAAAAAAAAAAAAAAAAAAAAAAAAAAAAAAAAAAAAAAAAAAAAAAAAAAAAAAAAAAAAAAAAAAAAAAAAAAAAAAAAAAAAAAAAAAAAAAAAAAAAAAAAAAAAAAAAAAAAAAAAAAAAAAAAAAAAAAAAAAAAAAAAAAAAAAAAAAAAAAAAAAAAAAAAAAAAAAAAAAAAAAAAAAAAAAAAAAAAAAAAAAAAAAAAAAAAAAAAAAAAAAAAAAAAAAAAAAAAAAAAAAAAAAAAAAAAAAAAAAAAAAAAAAAAAAAAAAAAAAAAAAAAAAAAAAAAAAAAAAAAAAAAAAAAAAAAAAAAAAAAAAAAAAAAAAAAAAAAAAAAAAAAAAAAAAAAAAAAAAAAAAAAAAAAAAAAAAAAAAAAAAAAAAAAAAAAAAAAAAAAAAAAAAAAAAAAAAAAAAAAAAAAAAAAAAAAAAAAAAAAAAAAAAAAAAAAAAAAAAAAAAAAAAAAAAAAAAAAAAAAAAAAAAAAAAAAAAAAAAAAAAAAAAAAAAAAAAAAAAAAAAAAAAAAAAAAAAAAAAAAAAAAAAAAAAAAAAAAAAAAAAAAAAAAAAAAAAAAAAAAAAAAAAAAAAAAAAAAAAAAAAAAAAAAAAAAAAAAAAAAAAAAAAAAAAAAAAAAAAAAAAAAAAAAAAAAAAAAAAAAAAAAAAAAAAAAAAAAAAAAAAAAAAAAAAAAAAAAAAAAAAAAAAAAAAAAAAAAAAAAAAAAAAAAAAAAAAAAAAAAAAAAAAAAAAAAAAAAAAAAAAAAAAAAAAAAAAAAAAAAAAAAAAAAAAAAAAAAAAAAAAAAAAAAAAAAAAAAAAAAAAAAAAAAAAAAAAAAAAAAAAAAAAAAAAAAAAAAAAAAAAAAAAAAAAAAAAAAAAAAAAAAAAAAAAAAAAAAAAAAAAAAAAAAAAAAAAAAAAAAAAAAAAAAAAAAAAAAAAAAAAAAAAAAAAAAAAAAAAAAAAAAAAAAAAAAAAAAAAAAAAAAAAAAAAAAAAAAAAAAAAAAAAAAAAAAAAAAAAAAAAAAAAAAAAAAAAAAAAAAAAAAAAAAAAAAAAAAAAAAAAAAAAAAAAAAAAAAAAAAAAAAAAAAAAAAAAAAAAAAAAAAAAAAAAAAAAAAAAAAAAAAAAAAAAAAAAAAAAAAAAAAAAAAAAAAAAAAAAAAAAAAAAAAAAAAAAAAAAAAAAAAAAAAAAAAAAAAAAAAAAAAAAAAAAAAAAAAAAAAAAAAAAAAAAAAAAAAAAAAAAAAAAAAAAAAAAAAAAAAAAAAAAAAAAAAAAAAAAAAAAAAAAAAAAAAAAAAAAAAAAAAAAAAAAAAAAAAAAAAAAAAAAAAAAAAAAAAAAAAAAAAAAAAAAAAAAAAAAAAAAAAAAAAAAAAAAAAAAAAAAAAAAAAAAAAAAAAAAAAAAAAAAAAAAAAAAAAAAAAAAAAAAAAAAAAAAAAAAAAAAAAAAAAAAAAAAAAAAAAAAAAAAAAAAAAAAAAAAAAAAAAAAAAAAAAAAAAAAAAAAAAAAAAAAAAAAAAAAAAAAAAAAAAAAAAAAAAAAAAAAAAAAAAAAAAAAAAAAAAAAAAAAAAAAAAAAAAAAAAAAAAAAAAAAAAAAAAAAAAAAAAAAAAAAAAAAAAAAAAAAAAAAAAAAAAAAAAAAAAAAAAAAAAAAAAAAAAAAAAAAAAAAAAAAAAAAAAAAAAAAAAAAAAAAAAAAAAAAAAAAAAAAAAAAAAAAAAAAAAAAAAAAAAAAAAAAAAAAAAAAAAAAAAAAAAAAAAAAAAAAAAAAAAAAAAAAAAAAAAAAAAAAAAAAAAAAAAAAAAAAAAAAAAAAAAAAAAAAAAAAAAAAAAAAAAAAAAAAAAAAAAAAAAAAAAAAAAAAAAAAAAAAAAAAAAAAAAAAAAAAAAAAAAAAAAAAAAAAAAAAAAAAAAAAAAAAAAAAAAAAAAAAAAAAAAAAAAAAAAAAAAAAAAAAAAAAAAAAAAAAAAAAAAAAAAAAAAAAAAAAAAAAAAAAAAAAAAAAAAAAAAAAAAAAAAAAAAAAAAAAAAAAAAAAAAAAAAAAAAAAAAAAAAAAAAAAAAAAAAAAAAAAAAAAAAAAAAAAAAAAAAAAAAAAAAAAAAAAAAAAAAAAAAAAAAAAAAAAAAAAAAAAAAAAAAAAAAAAAAAAAAAAAAAAAAAAAAAAAAAAAAAAAAAAAAAAAAAAAAAAAAAAAAAAAAAAAAAAAAAAAAAAAAAAAAAAAAAAAAAAAAAAAAAAAAAAAAAAAAAAAAAAAAAAAAAAAAAAAAAAAAAAAAAAAAAAAAAAAAAAAAAAAAAAAAAAAAAAAAAAAAAAAAAAAAAAAAAAAAAAAAAAAAAAAAAAAAAAAAAAAAAAAAAAAAAAAAAAAAAAAAAAAAAAAAAAAAAAAAAAAAAAAAAAAAAAAAAAAAAAAAAAAAAAAAAAAAAAAAAAAAAAAAAAAAAAAAAAAAAAAAAAAAAAAAAAAAAAAAAAAAAAAAAAAAAAAAAAAAAAAAAAAAAAAAAAAAAAAAAAAAAAAAAAAAAAAAAAAAAAAAAAAAAAAAAAAAAAAAAAAAAAAAAAAAAAAAAAAAAAAAAAAAAAAAAAAAAAAAAAAAAAAAAAAAAAAAAAAAAAAAAAAAAAAAAAAAAAAAAAAAAAAAAAAAAAAAAAAAAAAAAAAAAAAAAAAAAAAAAAAAAAAAAAAAAAAAAAAAAAAAAAAAAAAAAAAAAAAAAAAAAAAAAAAAAAAAAAAAAAAAAAAAAAAAAAAAAAAAAAAAAAAAAAAAAAAAAAAAAAAAAAAAAAAAAAAAAAAAAAAAAAAAAAAAAAAAAAAAAAAAAAAAAAAAAAAAAAAAAAAAAAAAAAAAAAAAAAAAAAAAAAAAAAAAAAAAAAAAAAAAAAAAAAAAAAAAAAAAAAAAAAAAAAAAAAAAAAAAAAAAAAAAAAAAAAAAAAAAAAAAAAAAAAAAAAAAAAAAAAAAAAAAAAAAAAAAAAAAAAAAAAAAAAAAAAAAAAAAAAAAAAAAAAAAAAAAAAAAAAAAAAAAAAAAAAAAAAAAAAAAAAAAAAAAAAAAAAAAAAAAAAAAAAAAAAAAAAAAAAAAAAAAAAAAAAAAAAAAAAAAAAAAAAAAAAAAAAAAAAAAAAAAAAAAAAAAAAAAAAAAAAAAAAAAAAAAAAAAAAAAAAAAAAAAAAAAAAAAAAAAAAAAAAAAAAAAAAAAAAAAAAAAAAAAAAAAAAAAAAAAAAAAAAAAAAAAAAAAAAAAAAAAAAAAAAAAAAAAAAAAAAAAAAAAAAAPZYQCJrT4R6snb5AecqcqEkPUK9RmdVFp1y7RzMwi1Vwnn8Zmeuwolo0ugRfo+DJG31+7NRjMEobQ1dgJU97wiU7E0=</c2pa:manifest></metadata>
<path d="M1.2765 12.21V6.22869e-06H5.735L8.917 8.78751H9.0095L12.1175 6.22869e-06H16.3725V12.21H13.5605L13.727 3.03401H13.5235L9.99 12.21H7.548L4.0885 3.03401H3.885L4.0515 12.21H1.2765ZM22.1644 12.469C21.3504 12.469 20.6228 12.3642 19.9814 12.1545C19.3401 11.9325 18.7913 11.6118 18.3349 11.1925C17.8909 10.7732 17.5518 10.2552 17.3174 9.63851C17.0831 9.02184 16.9659 8.31267 16.9659 7.51101C16.9659 6.73401 17.0769 6.01867 17.2989 5.36501C17.5333 4.71134 17.8601 4.15017 18.2794 3.68151C18.7111 3.20051 19.2353 2.83051 19.8519 2.57151C20.4809 2.31251 21.1839 2.18301 21.9609 2.18301C22.7503 2.18301 23.4409 2.31251 24.0329 2.57151C24.6373 2.81817 25.1306 3.18817 25.5129 3.68151C25.9076 4.17484 26.1974 4.77917 26.3824 5.49451C26.5674 6.19751 26.6291 7.00534 26.5674 7.91801L18.9269 7.97351V6.41951L24.8654 6.36401L23.8109 7.08551C23.8973 6.46884 23.8603 5.96934 23.6999 5.58701C23.5396 5.19234 23.3053 4.90867 22.9969 4.73601C22.6886 4.55101 22.3556 4.45851 21.9979 4.45851C21.5663 4.45851 21.1839 4.57567 20.8509 4.81001C20.5303 5.04434 20.2774 5.38351 20.0924 5.82751C19.9074 6.27151 19.8149 6.81417 19.8149 7.45551C19.8149 8.46684 20.0308 9.20067 20.4624 9.65701C20.9064 10.1133 21.4676 10.3415 22.1459 10.3415C22.4789 10.3415 22.7564 10.2983 22.9784 10.212C23.2004 10.1133 23.3793 9.99617 23.5149 9.86051C23.6629 9.71251 23.7739 9.55217 23.8479 9.37951C23.9343 9.20684 24.0021 9.04034 24.0514 8.88001L26.6414 9.43501C26.5428 9.89134 26.3824 10.3045 26.1604 10.6745C25.9508 11.0445 25.6609 11.3652 25.2909 11.6365C24.9333 11.9078 24.4954 12.1113 23.9774 12.247C23.4718 12.395 22.8674 12.469 22.1644 12.469ZM27.0839 12.21V7.67751V2.44201H29.5259L29.5814 5.75351H29.9514C30.0377 4.89017 30.198 4.20567 30.4324 3.70001C30.679 3.18201 31.0244 2.80584 31.4684 2.57151C31.9247 2.33717 32.4859 2.22001 33.1519 2.22001C33.2505 2.22001 33.3615 2.22617 33.4849 2.23851C33.6082 2.23851 33.75 2.25084 33.9104 2.27551L33.7994 5.45751C33.602 5.35884 33.3862 5.29717 33.1519 5.27251C32.9299 5.23551 32.7325 5.21701 32.5599 5.21701C32.0789 5.21701 31.6595 5.30951 31.3019 5.49451C30.9565 5.67951 30.679 5.96317 30.4694 6.34551C30.272 6.72784 30.1425 7.20884 30.0809 7.78851V12.21H27.0839Z" fill="#141414"/>
<path d="M2.504 21.306C2.15733 21.306 1.85067 21.2687 1.584 21.194C1.32267 21.1193 1.104 21.0073 0.928 20.858C0.757333 20.7087 0.632 20.5247 0.552 20.306C0.477333 20.0873 0.450667 19.8367 0.472 19.554L1.016 19.458C0.989333 19.7567 1.032 20.0047 1.144 20.202C1.256 20.394 1.42933 20.538 1.664 20.634C1.904 20.73 2.18933 20.778 2.52 20.778C2.84 20.778 3.10933 20.7407 3.328 20.666C3.54667 20.586 3.712 20.474 3.824 20.33C3.94133 20.186 4 20.0207 4 19.834C4 19.6207 3.93333 19.4553 3.8 19.338C3.672 19.2153 3.50133 19.122 3.288 19.058C3.07467 18.994 2.84267 18.9353 2.592 18.882C2.34667 18.8287 2.104 18.77 1.864 18.706C1.624 18.642 1.40533 18.5567 1.208 18.45C1.016 18.338 0.861333 18.194 0.744 18.018C0.626667 17.842 0.568 17.6153 0.568 17.338C0.568 17.0287 0.645333 16.762 0.8 16.538C0.96 16.314 1.17867 16.1407 1.456 16.018C1.73333 15.8953 2.056 15.834 2.424 15.834C2.792 15.834 3.12267 15.8927 3.416 16.01C3.70933 16.1273 3.944 16.306 4.12 16.546C4.30133 16.7807 4.39467 17.0767 4.4 17.434L3.824 17.554C3.824 17.3567 3.78933 17.1833 3.72 17.034C3.656 16.8793 3.56 16.7513 3.432 16.65C3.30933 16.5487 3.16 16.474 2.984 16.426C2.81333 16.3727 2.624 16.346 2.416 16.346C2.17067 16.346 1.952 16.386 1.76 16.466C1.568 16.546 1.416 16.658 1.304 16.802C1.19733 16.9407 1.144 17.106 1.144 17.298C1.144 17.5327 1.22133 17.714 1.376 17.842C1.53067 17.97 1.73067 18.0713 1.976 18.146C2.22133 18.2153 2.48267 18.2793 2.76 18.338C2.98933 18.3913 3.21067 18.45 3.424 18.514C3.64267 18.578 3.83733 18.6633 4.008 18.77C4.184 18.8767 4.32267 19.0153 4.424 19.186C4.52533 19.3567 4.576 19.5753 4.576 19.842C4.576 20.1353 4.49867 20.394 4.344 20.618C4.19467 20.8367 3.96533 21.0073 3.656 21.13C3.352 21.2473 2.968 21.306 2.504 21.306ZM8.66625 21.21V15.93H9.26625V21.21H8.66625ZM7.04225 16.466V15.93H10.8903V16.466H7.04225ZM15.8831 21.306C15.6005 21.306 15.3445 21.2767 15.1151 21.218C14.8911 21.1593 14.6911 21.0713 14.5151 20.954C14.3445 20.8367 14.2005 20.6953 14.0831 20.53C13.9658 20.3593 13.8751 20.1647 13.8111 19.946C13.7525 19.7273 13.7231 19.4873 13.7231 19.226V15.93H14.3231V19.202C14.3231 19.538 14.3818 19.8233 14.4991 20.058C14.6165 20.2873 14.7898 20.4607 15.0191 20.578C15.2538 20.6953 15.5391 20.754 15.8751 20.754C16.2218 20.754 16.5098 20.6953 16.7391 20.578C16.9685 20.4607 17.1418 20.2873 17.2591 20.058C17.3765 19.8233 17.4351 19.538 17.4351 19.202V15.93H18.0351V19.226C18.0351 19.8927 17.8485 20.4073 17.4751 20.77C17.1071 21.1273 16.5765 21.306 15.8831 21.306ZM21.691 21.21V20.682H23.267C23.6457 20.682 23.9577 20.5913 24.203 20.41C24.4537 20.2287 24.6377 19.9807 24.755 19.666C24.8777 19.3513 24.939 18.9913 24.939 18.586C24.939 18.218 24.899 17.9007 24.819 17.634C24.7443 17.3673 24.627 17.1487 24.467 16.978C24.3123 16.802 24.115 16.6713 23.875 16.586C23.6403 16.5007 23.3603 16.458 23.035 16.458H21.691V15.93H23.027C23.6083 15.93 24.083 16.034 24.451 16.242C24.8243 16.45 25.099 16.7487 25.275 17.138C25.4563 17.5273 25.547 17.994 25.547 18.538C25.547 18.8793 25.5097 19.1913 25.435 19.474C25.3657 19.7567 25.2643 20.0073 25.131 20.226C24.9977 20.4393 24.8377 20.6207 24.651 20.77C24.4643 20.914 24.2537 21.0233 24.019 21.098C23.7897 21.1727 23.5443 21.21 23.283 21.21H21.691ZM21.355 21.21V15.93H21.947V21.21H21.355ZM28.7203 21.21V15.93H29.3283V21.21H28.7203ZM34.8072 21.306C34.4232 21.306 34.0872 21.242 33.7992 21.114C33.5165 20.9807 33.2765 20.794 33.0792 20.554C32.8872 20.314 32.7432 20.0287 32.6472 19.698C32.5512 19.3673 32.5032 18.9967 32.5032 18.586C32.5032 17.978 32.6019 17.4713 32.7992 17.066C32.9965 16.6553 33.2685 16.3487 33.6152 16.146C33.9619 15.938 34.3592 15.834 34.8072 15.834C35.1592 15.834 35.4765 15.8953 35.7592 16.018C36.0419 16.1407 36.2819 16.322 36.4792 16.562C36.6819 16.802 36.8365 17.0953 36.9432 17.442C37.0552 17.7833 37.1112 18.1727 37.1112 18.61C37.1112 19.01 37.0632 19.3753 36.9672 19.706C36.8712 20.0367 36.7245 20.322 36.5272 20.562C36.3352 20.802 36.0952 20.986 35.8072 21.114C35.5245 21.242 35.1912 21.306 34.8072 21.306ZM34.7992 20.778C35.1672 20.778 35.4765 20.6927 35.7272 20.522C35.9779 20.346 36.1699 20.098 36.3032 19.778C36.4365 19.458 36.5032 19.0687 36.5032 18.61C36.5032 18.1407 36.4339 17.7407 36.2952 17.41C36.1619 17.074 35.9672 16.818 35.7112 16.642C35.4605 16.4607 35.1565 16.37 34.7992 16.37C34.4525 16.37 34.1512 16.458 33.8952 16.634C33.6445 16.8047 33.4499 17.0553 33.3112 17.386C33.1779 17.7167 33.1112 18.122 33.1112 18.602C33.1112 18.954 33.1485 19.266 33.2232 19.538C33.2979 19.8047 33.4072 20.0313 33.5512 20.218C33.6952 20.3993 33.8712 20.538 34.0792 20.634C34.2925 20.73 34.5325 20.778 34.7992 20.778Z" fill="#141414"/>
<circle cx="35.5" cy="10.71" r="1.5" fill="#C85A2E"/>
</svg>
